<mxfile host="app.diagrams.net" modified="2024-02-11T01:42:00.742Z" agent="Mozilla/5.0 (Windows NT 10.0; Win64; x64) AppleWebKit/537.36 (KHTML, like Gecko) Chrome/120.0.0.0 Safari/537.36" etag="eQultj9hQZrlHF7l74xO" version="23.1.2" type="github">
  <diagram name="第 1 页" id="FssP3Ip4qqPRLk-bChkl">
    <mxGraphModel dx="2440" dy="3406" grid="1" gridSize="10" guides="1" tooltips="1" connect="1" arrows="1" fold="1" page="1" pageScale="1" pageWidth="291" pageHeight="413" math="0" shadow="0">
      <root>
        <mxCell id="0" />
        <mxCell id="1" parent="0" />
        <mxCell id="DbM-j61znftE7jtC_Qi2-2" value="Start a new game" style="rounded=1;whiteSpace=wrap;html=1;shadow=0;comic=0;labelBackgroundColor=none;strokeWidth=1;fontFamily=Verdana;fontSize=12;align=center;arcSize=50;" parent="1" vertex="1">
          <mxGeometry x="57" y="-1798" width="120" height="30" as="geometry" />
        </mxCell>
        <mxCell id="DbM-j61znftE7jtC_Qi2-3" value="" style="edgeStyle=orthogonalEdgeStyle;rounded=0;orthogonalLoop=1;jettySize=auto;html=1;entryX=0.5;entryY=0;entryDx=0;entryDy=0;" parent="1" source="DbM-j61znftE7jtC_Qi2-4" target="DbM-j61znftE7jtC_Qi2-7" edge="1">
          <mxGeometry relative="1" as="geometry">
            <mxPoint x="379.25" y="-1960" as="targetPoint" />
          </mxGeometry>
        </mxCell>
        <mxCell id="DbM-j61znftE7jtC_Qi2-4" value="" style="ellipse;whiteSpace=wrap;html=1;rounded=0;shadow=0;comic=0;labelBackgroundColor=none;strokeWidth=1;fillColor=#000000;fontFamily=Verdana;fontSize=12;align=center;" parent="1" vertex="1">
          <mxGeometry x="364.38" y="-2030" width="40" height="40" as="geometry" />
        </mxCell>
        <mxCell id="DbM-j61znftE7jtC_Qi2-5" value="" style="shape=mxgraph.bpmn.shape;html=1;verticalLabelPosition=bottom;labelBackgroundColor=#ffffff;verticalAlign=top;perimeter=ellipsePerimeter;outline=end;symbol=terminate;rounded=0;shadow=0;comic=0;strokeWidth=1;fontFamily=Verdana;fontSize=12;align=center;" parent="1" vertex="1">
          <mxGeometry x="364.38" y="-1700" width="40" height="40" as="geometry" />
        </mxCell>
        <mxCell id="DbM-j61znftE7jtC_Qi2-12" value="" style="edgeStyle=orthogonalEdgeStyle;rounded=0;orthogonalLoop=1;jettySize=auto;html=1;" parent="1" source="DbM-j61znftE7jtC_Qi2-7" target="DbM-j61znftE7jtC_Qi2-9" edge="1">
          <mxGeometry relative="1" as="geometry" />
        </mxCell>
        <mxCell id="DbM-j61znftE7jtC_Qi2-14" value="" style="edgeStyle=orthogonalEdgeStyle;rounded=0;orthogonalLoop=1;jettySize=auto;html=1;entryX=0.5;entryY=0;entryDx=0;entryDy=0;exitX=0.971;exitY=0.727;exitDx=0;exitDy=0;exitPerimeter=0;" parent="1" source="DbM-j61znftE7jtC_Qi2-7" target="DbM-j61znftE7jtC_Qi2-11" edge="1">
          <mxGeometry relative="1" as="geometry">
            <mxPoint x="579.2550000000001" y="-1930" as="targetPoint" />
            <Array as="points">
              <mxPoint x="627" y="-1921" />
            </Array>
          </mxGeometry>
        </mxCell>
        <mxCell id="DbM-j61znftE7jtC_Qi2-16" value="" style="edgeStyle=orthogonalEdgeStyle;rounded=0;orthogonalLoop=1;jettySize=auto;html=1;entryX=0.45;entryY=-0.033;entryDx=0;entryDy=0;entryPerimeter=0;" parent="1" source="DbM-j61znftE7jtC_Qi2-7" target="DbM-j61znftE7jtC_Qi2-2" edge="1">
          <mxGeometry relative="1" as="geometry">
            <mxPoint x="226.94999999999982" y="-1930" as="targetPoint" />
          </mxGeometry>
        </mxCell>
        <mxCell id="DbM-j61znftE7jtC_Qi2-7" value="Display the main menu" style="rounded=1;whiteSpace=wrap;html=1;shadow=0;comic=0;labelBackgroundColor=none;strokeWidth=1;fontFamily=Verdana;fontSize=12;align=center;arcSize=50;" parent="1" vertex="1">
          <mxGeometry x="306.95" y="-1950" width="154.87" height="40" as="geometry" />
        </mxCell>
        <mxCell id="DbM-j61znftE7jtC_Qi2-8" value="Load a saved game" style="rounded=1;whiteSpace=wrap;html=1;shadow=0;comic=0;labelBackgroundColor=none;strokeWidth=1;fontFamily=Verdana;fontSize=12;align=center;arcSize=50;" parent="1" vertex="1">
          <mxGeometry x="187" y="-1798" width="130" height="30" as="geometry" />
        </mxCell>
        <mxCell id="DbM-j61znftE7jtC_Qi2-19" value="" style="edgeStyle=orthogonalEdgeStyle;rounded=0;orthogonalLoop=1;jettySize=auto;html=1;" parent="1" source="DbM-j61znftE7jtC_Qi2-9" target="DbM-j61znftE7jtC_Qi2-5" edge="1">
          <mxGeometry relative="1" as="geometry" />
        </mxCell>
        <mxCell id="DbM-j61znftE7jtC_Qi2-9" value="Check high scores" style="rounded=1;whiteSpace=wrap;html=1;shadow=0;comic=0;labelBackgroundColor=none;strokeWidth=1;fontFamily=Verdana;fontSize=12;align=center;arcSize=50;" parent="1" vertex="1">
          <mxGeometry x="324.38" y="-1798" width="120" height="30" as="geometry" />
        </mxCell>
        <mxCell id="DbM-j61znftE7jtC_Qi2-10" value="Check tutorials" style="rounded=1;whiteSpace=wrap;html=1;shadow=0;comic=0;labelBackgroundColor=none;strokeWidth=1;fontFamily=Verdana;fontSize=12;align=center;arcSize=50;" parent="1" vertex="1">
          <mxGeometry x="451" y="-1798" width="110" height="30" as="geometry" />
        </mxCell>
        <mxCell id="DbM-j61znftE7jtC_Qi2-11" value="Check collections" style="rounded=1;whiteSpace=wrap;html=1;shadow=0;comic=0;labelBackgroundColor=none;strokeWidth=1;fontFamily=Verdana;fontSize=12;align=center;arcSize=50;" parent="1" vertex="1">
          <mxGeometry x="567" y="-1798" width="120" height="30" as="geometry" />
        </mxCell>
        <mxCell id="DbM-j61znftE7jtC_Qi2-17" value="" style="edgeStyle=orthogonalEdgeStyle;rounded=0;orthogonalLoop=1;jettySize=auto;html=1;entryX=0.5;entryY=0;entryDx=0;entryDy=0;exitX=0.304;exitY=1.025;exitDx=0;exitDy=0;exitPerimeter=0;" parent="1" source="DbM-j61znftE7jtC_Qi2-7" target="DbM-j61znftE7jtC_Qi2-8" edge="1">
          <mxGeometry relative="1" as="geometry">
            <mxPoint x="337" y="-1890" as="sourcePoint" />
            <mxPoint x="177" y="-1749" as="targetPoint" />
          </mxGeometry>
        </mxCell>
        <mxCell id="DbM-j61znftE7jtC_Qi2-18" value="" style="edgeStyle=orthogonalEdgeStyle;rounded=0;orthogonalLoop=1;jettySize=auto;html=1;exitX=0.75;exitY=1;exitDx=0;exitDy=0;entryX=0.5;entryY=0;entryDx=0;entryDy=0;" parent="1" source="DbM-j61znftE7jtC_Qi2-7" target="DbM-j61znftE7jtC_Qi2-10" edge="1">
          <mxGeometry relative="1" as="geometry">
            <mxPoint x="599" y="-1910" as="sourcePoint" />
            <mxPoint x="517" y="-1830" as="targetPoint" />
          </mxGeometry>
        </mxCell>
        <mxCell id="DbM-j61znftE7jtC_Qi2-22" value="" style="edgeStyle=orthogonalEdgeStyle;rounded=0;orthogonalLoop=1;jettySize=auto;html=1;exitX=0.5;exitY=1;exitDx=0;exitDy=0;entryX=0.969;entryY=0.25;entryDx=0;entryDy=0;entryPerimeter=0;" parent="1" source="DbM-j61znftE7jtC_Qi2-10" target="DbM-j61znftE7jtC_Qi2-5" edge="1">
          <mxGeometry relative="1" as="geometry">
            <mxPoint x="497" y="-1758" as="sourcePoint" />
            <mxPoint x="407" y="-1690" as="targetPoint" />
            <Array as="points">
              <mxPoint x="506" y="-1690" />
            </Array>
          </mxGeometry>
        </mxCell>
        <mxCell id="DbM-j61znftE7jtC_Qi2-23" value="" style="edgeStyle=orthogonalEdgeStyle;rounded=0;orthogonalLoop=1;jettySize=auto;html=1;exitX=0.5;exitY=1;exitDx=0;exitDy=0;entryX=1;entryY=0.5;entryDx=0;entryDy=0;" parent="1" source="DbM-j61znftE7jtC_Qi2-11" target="DbM-j61znftE7jtC_Qi2-5" edge="1">
          <mxGeometry relative="1" as="geometry">
            <mxPoint x="627" y="-1750" as="sourcePoint" />
            <mxPoint x="427" y="-1680" as="targetPoint" />
            <Array as="points">
              <mxPoint x="627" y="-1680" />
            </Array>
          </mxGeometry>
        </mxCell>
        <mxCell id="DbM-j61znftE7jtC_Qi2-24" value="" style="edgeStyle=orthogonalEdgeStyle;rounded=0;orthogonalLoop=1;jettySize=auto;html=1;exitX=0.5;exitY=1;exitDx=0;exitDy=0;entryX=0.145;entryY=0.145;entryDx=0;entryDy=0;entryPerimeter=0;" parent="1" source="DbM-j61znftE7jtC_Qi2-8" target="DbM-j61znftE7jtC_Qi2-5" edge="1">
          <mxGeometry relative="1" as="geometry">
            <mxPoint x="251.5" y="-1750" as="sourcePoint" />
            <mxPoint x="251.5" y="-1682" as="targetPoint" />
          </mxGeometry>
        </mxCell>
        <mxCell id="DbM-j61znftE7jtC_Qi2-26" value="" style="edgeStyle=orthogonalEdgeStyle;rounded=0;orthogonalLoop=1;jettySize=auto;html=1;entryX=0;entryY=0.5;entryDx=0;entryDy=0;exitX=0.5;exitY=1;exitDx=0;exitDy=0;" parent="1" source="DbM-j61znftE7jtC_Qi2-2" target="DbM-j61znftE7jtC_Qi2-5" edge="1">
          <mxGeometry relative="1" as="geometry">
            <mxPoint x="97" y="-1710" as="sourcePoint" />
            <mxPoint x="205" y="-1636" as="targetPoint" />
          </mxGeometry>
        </mxCell>
        <mxCell id="QzffncCVLL0UxxURwQAM-4" value="" style="edgeStyle=orthogonalEdgeStyle;rounded=0;orthogonalLoop=1;jettySize=auto;html=1;entryX=0.5;entryY=1;entryDx=0;entryDy=0;" edge="1" parent="1" source="QzffncCVLL0UxxURwQAM-1" target="DbM-j61znftE7jtC_Qi2-5">
          <mxGeometry relative="1" as="geometry">
            <mxPoint x="447" y="-1640" as="targetPoint" />
            <Array as="points">
              <mxPoint x="757" y="-1640" />
              <mxPoint x="384" y="-1640" />
            </Array>
          </mxGeometry>
        </mxCell>
        <mxCell id="QzffncCVLL0UxxURwQAM-1" value="Exit the game" style="rounded=1;whiteSpace=wrap;html=1;shadow=0;comic=0;labelBackgroundColor=none;strokeWidth=1;fontFamily=Verdana;fontSize=12;align=center;arcSize=50;" vertex="1" parent="1">
          <mxGeometry x="697" y="-1798" width="120" height="30" as="geometry" />
        </mxCell>
        <mxCell id="QzffncCVLL0UxxURwQAM-2" value="" style="edgeStyle=orthogonalEdgeStyle;rounded=0;orthogonalLoop=1;jettySize=auto;html=1;entryX=0.493;entryY=-0.05;entryDx=0;entryDy=0;entryPerimeter=0;exitX=0.987;exitY=0.28;exitDx=0;exitDy=0;exitPerimeter=0;" edge="1" parent="1" source="DbM-j61znftE7jtC_Qi2-7" target="QzffncCVLL0UxxURwQAM-1">
          <mxGeometry relative="1" as="geometry">
            <mxPoint x="637" y="-1788" as="targetPoint" />
            <mxPoint x="472" y="-1940" as="sourcePoint" />
            <Array as="points">
              <mxPoint x="460" y="-1940" />
              <mxPoint x="756" y="-1940" />
            </Array>
          </mxGeometry>
        </mxCell>
      </root>
    </mxGraphModel>
  </diagram>
</mxfile>
